HIERARCHY
ROOT Hips
{
	OFFSET 0.000000 83.214638 0.000000
	CHANNELS 6 Xposition Yposition Zposition Xrotation Yrotation Zrotation
	JOINT Pelvis
	{
		OFFSET 0.000000 0.000000 0.000000
		CHANNELS 3 Xrotation Yrotation Zrotation
		JOINT LeftUpLeg
		{
			OFFSET 8.479700 -4.795502 -0.379100
			CHANNELS 3 Xrotation Yrotation Zrotation
			JOINT LeftLeg
			{
				OFFSET 0.024144 -32.555107 0.112900
				CHANNELS 3 Xrotation Yrotation Zrotation
				JOINT LeftFoot
				{
					OFFSET -0.024144 -32.638630 -3.012600
					CHANNELS 3 Xrotation Yrotation Zrotation
					JOINT LeftToeBase
					{
						OFFSET 0.970200 -13.225400 11.864200
						CHANNELS 3 Xrotation Yrotation Zrotation
						End Site
						{
							OFFSET 0.000000 12.319262 0.000000
						}
					}
					JOINT LFootTongue
					{
						OFFSET 1.142400 -1.059800 6.665200
						CHANNELS 3 Xrotation Yrotation Zrotation
						End Site
						{
							OFFSET 0.000000 12.319262 0.000000
						}
					}
				}
				JOINT LeftPantLeg
				{
					OFFSET 0.918482 -16.533964 -2.284700
					CHANNELS 3 Xrotation Yrotation Zrotation
					End Site
					{
						OFFSET 0.350399 24.744368 0.000000
					}
				}
			}
		}
		JOINT RightUpLeg
		{
			OFFSET -8.479700 -4.795502 -0.379100
			CHANNELS 3 Xrotation Yrotation Zrotation
			JOINT RightLeg
			{
				OFFSET -0.023144 -32.555092 0.112900
				CHANNELS 3 Xrotation Yrotation Zrotation
				JOINT RightFoot
				{
					OFFSET 0.023144 -32.638641 -3.012700
					CHANNELS 3 Xrotation Yrotation Zrotation
					JOINT RightToeBase
					{
						OFFSET -0.970200 -13.225400 11.864200
						CHANNELS 3 Xrotation Yrotation Zrotation
						End Site
						{
							OFFSET 0.000000 12.319244 0.000000
						}
					}
					JOINT RFootTongue
					{
						OFFSET -1.142200 -1.059800 6.665200
						CHANNELS 3 Xrotation Yrotation Zrotation
						End Site
						{
							OFFSET 0.000000 12.319243 0.000000
						}
					}
				}
				JOINT RightPantLeg
				{
					OFFSET -0.919482 -16.533978 -2.284800
					CHANNELS 3 Xrotation Yrotation Zrotation
					End Site
					{
						OFFSET -0.350400 24.744419 0.000000
					}
				}
			}
		}
	}
	JOINT Spine
	{
		OFFSET 0.000000 7.722000 1.166200
		CHANNELS 3 Xrotation Yrotation Zrotation
		JOINT Spine1
		{
			OFFSET 0.000000 12.024101 0.248800
			CHANNELS 3 Xrotation Yrotation Zrotation
			JOINT Spine2
			{
				OFFSET 0.000000 11.502998 -0.491200
				CHANNELS 3 Xrotation Yrotation Zrotation
				JOINT Neck
				{
					OFFSET 0.000000 18.430702 -3.123100
					CHANNELS 3 Xrotation Yrotation Zrotation
					JOINT Head
					{
						OFFSET 0.000000 9.051102 1.034000
						CHANNELS 3 Xrotation Yrotation Zrotation
						JOINT HairB
						{
							OFFSET 0.208400 24.786102 24.822300
							CHANNELS 3 Xrotation Yrotation Zrotation
							End Site
							{
								OFFSET 0.000000 32.263779 0.000000
							}
						}
						JOINT HairA
						{
							OFFSET -7.081100 24.428299 23.196600
							CHANNELS 3 Xrotation Yrotation Zrotation
							End Site
							{
								OFFSET 0.000000 32.263779 0.000000
							}
						}
						JOINT Hat
						{
							OFFSET 16.728800 15.048294 -15.439601
							CHANNELS 3 Xrotation Yrotation Zrotation
							End Site
							{
								OFFSET 0.000000 32.263779 0.000000
							}
						}
					}
				}
				JOINT LeftShoulder
				{
					OFFSET 6.197800 13.665199 -4.064700
					CHANNELS 3 Xrotation Yrotation Zrotation
					JOINT LeftArm
					{
						OFFSET 7.778100 -0.187103 -1.709300
						CHANNELS 3 Xrotation Yrotation Zrotation
						JOINT LeftForeArm
						{
							OFFSET 22.049376 0.000000 0.000000
							CHANNELS 3 Xrotation Yrotation Zrotation
							JOINT LeftHand
							{
								OFFSET 23.009392 0.000000 0.000000
								CHANNELS 3 Xrotation Yrotation Zrotation
								JOINT LeftHandThumb1
								{
									OFFSET 3.507191 -2.063065 3.133727
									CHANNELS 3 Xrotation Yrotation Zrotation
									JOINT LeftHandThumb2
									{
										OFFSET 3.101337 -1.790558 1.790558
										CHANNELS 3 Xrotation Yrotation Zrotation
										JOINT LeftHandThumb3
										{
											OFFSET 3.058640 -1.765907 1.765906
											CHANNELS 3 Xrotation Yrotation Zrotation
											End Site
											{
												OFFSET -0.415260 3.926476 -0.049563
											}
										}
									}
								}
								JOINT LeftHandIndex1
								{
									OFFSET 11.334419 -0.901459 3.706815
									CHANNELS 3 Xrotation Yrotation Zrotation
									JOINT LeftHandIndex2
									{
										OFFSET 3.283112 0.000000 0.000000
										CHANNELS 3 Xrotation Yrotation Zrotation
										JOINT LeftHandIndex3
										{
											OFFSET 3.323853 0.000000 0.000000
											CHANNELS 3 Xrotation Yrotation Zrotation
											End Site
											{
												OFFSET -1.135597 3.097809 0.402452
											}
										}
									}
								}
								JOINT LeftHandMiddle1
								{
									OFFSET 11.335861 0.000000 0.000000
									CHANNELS 3 Xrotation Yrotation Zrotation
									JOINT LeftHandMiddle2
									{
										OFFSET 3.410492 0.000000 0.000000
										CHANNELS 3 Xrotation Yrotation Zrotation
										JOINT LeftHandMiddle3
										{
											OFFSET 3.312172 0.000000 0.000000
											CHANNELS 3 Xrotation Yrotation Zrotation
											End Site
											{
												OFFSET -1.150200 3.080154 0.400270
											}
										}
									}
								}
								JOINT LeftHandRing1
								{
									OFFSET 11.514786 -0.013176 -3.003090
									CHANNELS 3 Xrotation Yrotation Zrotation
									JOINT LeftHandRing2
									{
										OFFSET 3.053307 0.000000 0.000000
										CHANNELS 3 Xrotation Yrotation Zrotation
										JOINT LeftHandRing3
										{
											OFFSET 3.295807 0.000000 0.000000
											CHANNELS 3 Xrotation Yrotation Zrotation
											End Site
											{
												OFFSET -1.281006 3.013344 0.375733
											}
										}
									}
								}
								JOINT LeftHandPinky1
								{
									OFFSET 10.518692 -0.960396 -5.730441
									CHANNELS 3 Xrotation Yrotation Zrotation
									JOINT LeftHandPinky2
									{
										OFFSET 2.861649 0.000000 0.000000
										CHANNELS 3 Xrotation Yrotation Zrotation
										JOINT LeftHandPinky3
										{
											OFFSET 2.863380 0.000000 0.000000
											CHANNELS 3 Xrotation Yrotation Zrotation
											End Site
											{
												OFFSET -0.843597 2.711159 0.369971
											}
										}
									}
								}
							}
							JOINT LSleeve
							{
								OFFSET 6.676277 -0.344902 -1.011730
								CHANNELS 3 Xrotation Yrotation Zrotation
								End Site
								{
									OFFSET 0.000000 14.885353 0.000000
								}
							}
						}
					}
				}
				JOINT RightShoulder
				{
					OFFSET -6.197800 13.665199 -4.064700
					CHANNELS 3 Xrotation Yrotation Zrotation
					JOINT RightArm
					{
						OFFSET -7.778100 -0.187103 -1.709300
						CHANNELS 3 Xrotation Yrotation Zrotation
						JOINT RightForeArm
						{
							OFFSET -22.049376 0.000000 0.000000
							CHANNELS 3 Xrotation Yrotation Zrotation
							JOINT RightHand
							{
								OFFSET -23.009392 0.000000 0.000000
								CHANNELS 3 Xrotation Yrotation Zrotation
								JOINT RightHandThumb1
								{
									OFFSET -3.507191 -2.063065 3.133727
									CHANNELS 3 Xrotation Yrotation Zrotation
									JOINT RightHandThumb2
									{
										OFFSET -3.101337 -1.790558 1.790558
										CHANNELS 3 Xrotation Yrotation Zrotation
										JOINT RightHandThumb3
										{
											OFFSET -3.058640 -1.765907 1.765906
											CHANNELS 3 Xrotation Yrotation Zrotation
											End Site
											{
												OFFSET 0.415260 3.926476 -0.049563
											}
										}
									}
								}
								JOINT RightHandIndex1
								{
									OFFSET -11.334419 -0.901459 3.706815
									CHANNELS 3 Xrotation Yrotation Zrotation
									JOINT RightHandIndex2
									{
										OFFSET -3.283112 0.000000 0.000000
										CHANNELS 3 Xrotation Yrotation Zrotation
										JOINT RightHandIndex3
										{
											OFFSET -3.323853 0.000000 0.000000
											CHANNELS 3 Xrotation Yrotation Zrotation
											End Site
											{
												OFFSET 1.135597 3.097809 0.402452
											}
										}
									}
								}
								JOINT RightHandMiddle1
								{
									OFFSET -11.335861 0.000000 0.000000
									CHANNELS 3 Xrotation Yrotation Zrotation
									JOINT RightHandMiddle2
									{
										OFFSET -3.410492 0.000000 0.000000
										CHANNELS 3 Xrotation Yrotation Zrotation
										JOINT RightHandMiddle3
										{
											OFFSET -3.312172 0.000000 0.000000
											CHANNELS 3 Xrotation Yrotation Zrotation
											End Site
											{
												OFFSET 1.150200 3.080154 0.400270
											}
										}
									}
								}
								JOINT RightHandRing1
								{
									OFFSET -11.514786 -0.013176 -3.003090
									CHANNELS 3 Xrotation Yrotation Zrotation
									JOINT RightHandRing2
									{
										OFFSET -3.053307 0.000000 0.000000
										CHANNELS 3 Xrotation Yrotation Zrotation
										JOINT RightHandRing3
										{
											OFFSET -3.295807 0.000000 0.000000
											CHANNELS 3 Xrotation Yrotation Zrotation
											End Site
											{
												OFFSET 1.281006 3.013344 0.375733
											}
										}
									}
								}
								JOINT RightHandPinky1
								{
									OFFSET -10.518692 -0.960396 -5.730441
									CHANNELS 3 Xrotation Yrotation Zrotation
									JOINT RightHandPinky2
									{
										OFFSET -2.861649 0.000000 0.000000
										CHANNELS 3 Xrotation Yrotation Zrotation
										JOINT RightHandPinky3
										{
											OFFSET -2.863380 0.000000 0.000000
											CHANNELS 3 Xrotation Yrotation Zrotation
											End Site
											{
												OFFSET 0.843597 2.711159 0.369971
											}
										}
									}
								}
							}
							JOINT RSleeve
							{
								OFFSET -6.676277 -0.344902 -1.011730
								CHANNELS 3 Xrotation Yrotation Zrotation
								End Site
								{
									OFFSET 0.000000 14.885353 0.000000
								}
							}
						}
					}
				}
				JOINT Backpack
				{
					OFFSET 0.000000 -2.471497 36.677502
					CHANNELS 3 Xrotation Yrotation Zrotation
					End Site
					{
						OFFSET 0.000000 20.427315 0.000000
					}
				}
				JOINT Hood
				{
					OFFSET 0.000000 18.754097 -10.431000
					CHANNELS 3 Xrotation Yrotation Zrotation
					JOINT Hood1
					{
						OFFSET 0.000000 -5.011002 -7.685901
						CHANNELS 3 Xrotation Yrotation Zrotation
						End Site
						{
							OFFSET 0.000000 9.175140 0.000000
						}
					}
				}
				JOINT LHoodieString
				{
					OFFSET 5.250500 16.397697 3.089900
					CHANNELS 3 Xrotation Yrotation Zrotation
					JOINT LHoodieString1
					{
						OFFSET 0.257700 -6.364304 3.694600
						CHANNELS 3 Xrotation Yrotation Zrotation
						JOINT LHoodieString2
						{
							OFFSET 0.000000 -9.643799 2.679100
							CHANNELS 3 Xrotation Yrotation Zrotation
							End Site
							{
								OFFSET 0.000000 10.009018 0.000000
							}
						}
					}
				}
				JOINT RHoodieString
				{
					OFFSET -5.250500 16.397697 3.089900
					CHANNELS 3 Xrotation Yrotation Zrotation
					JOINT RHoodieString1
					{
						OFFSET -0.257700 -6.364304 3.694600
						CHANNELS 3 Xrotation Yrotation Zrotation
						JOINT RHoodieString2
						{
							OFFSET 0.000000 -9.643799 2.679100
							CHANNELS 3 Xrotation Yrotation Zrotation
							End Site
							{
								OFFSET 0.000000 10.009018 0.000000
							}
						}
					}
				}
			}
			JOINT LBackpack_Strap
			{
				OFFSET 15.223200 -7.719803 -6.610900
				CHANNELS 3 Xrotation Yrotation Zrotation
				End Site
				{
					OFFSET 0.000000 16.040596 0.000000
				}
			}
			JOINT RBackpack_Strap
			{
				OFFSET -15.223000 -7.719803 -6.610900
				CHANNELS 3 Xrotation Yrotation Zrotation
				End Site
				{
					OFFSET 0.000000 16.040596 0.000000
				}
			}
		}
	}
	JOINT BoyFacialAnim_Joint
	{
		OFFSET 1.000000 -82.208099 -1.550900
		CHANNELS 3 Xrotation Yrotation Zrotation
		End Site
		{
			OFFSET 0.000000 30.012791 0.000000
		}
	}
}
MOTION
Frames: 5
Frame Time: 0.033333
0.027562 74.818054 1.724232 0.763814 0.307022 -1.372951 0.000000 0.000000 -0.000000 -25.675115 -8.526090 4.405454 73.702625 -5.017500 -9.847377 7.363516 2.681980 -3.837050 0.000004 0.000000 0.000000 0.000004 0.000000 0.000000 -0.000002 0.000000 0.000000 -11.399680 -3.541269 2.572178 49.471559 -1.842062 0.716681 -30.977981 -2.023237 -1.094398 0.000000 -0.000000 0.000000 0.000000 -0.000000 0.000000 -0.000000 -0.000000 -0.000000 12.894860 -0.006217 1.649270 4.181607 0.007438 0.091972 4.181593 0.014356 0.091413 10.394056 -0.195532 -0.512645 -17.027055 -2.833007 -0.727900 0.000000 0.000000 -0.000000 0.000000 0.000000 -0.000000 0.000000 0.000000 -0.000000 0.904254 7.277760 -15.329965 12.074928 -9.457045 -55.779283 -0.000018 -61.747335 -0.000009 -8.621265 -4.370630 -1.624896 2.409146 9.938241 7.571414 7.829790 28.412713 -2.004346 0.000000 -0.000000 -0.000001 3.821162 6.186464 -59.450028 8.424304 6.706762 -102.988755 -0.000000 -0.000004 -0.000002 8.269103 7.165310 -81.425581 8.417314 6.708344 -102.929032 -0.000000 -0.000000 0.000000 8.271024 7.165569 -81.441823 8.415402 6.708790 -102.912803 -0.000001 0.000002 -0.000002 12.314543 7.768607 -81.457068 8.408199 2.623475 -102.824168 -0.000001 0.000000 0.000003 0.000000 0.000002 -0.000000 1.252285 -4.818887 15.199546 -10.043683 15.804892 59.347206 0.000034 59.732101 -0.000037 -8.165861 -0.554663 2.115814 1.982786 -9.849352 -8.199439 9.251972 -29.511980 1.605392 -0.000000 0.000001 0.000003 4.696748 -6.739898 59.385203 8.507744 -6.771803 103.001022 0.000002 -0.000003 0.000005 9.510595 -7.412558 81.380898 8.495740 -6.774519 102.899334 -0.000001 0.000001 0.000002 9.510593 -7.412525 81.380891 8.495727 -6.774541 102.899307 -0.000000 -0.000000 -0.000001 9.510591 -7.412516 81.380898 8.495753 -6.774546 102.899307 0.000001 0.000003 0.000004 0.000002 -0.000001 0.000000 0.000001 0.000000 -0.000000 0.000001 0.000000 -0.000000 0.000001 0.000000 -0.000000 0.000001 0.000000 -0.000000 0.000001 0.000000 -0.000000 -0.000001 0.000000 -0.000000 0.000001 0.000000 -0.000000 0.000001 0.000000 -0.000000 -0.000001 0.000000 -0.000000 0.000001 0.000000 -0.000000 0.000001 0.000000 -0.000000 0.000000 0.000000 -0.000000 
-1.100593 76.253830 10.979672 0.210933 7.101235 -1.780273 -0.000000 -0.000001 0.000000 -37.346798 -6.314105 5.486229 68.323707 -5.085791 -9.911896 -3.378978 5.132676 -5.067338 -0.000001 0.000001 -0.000000 -0.000001 0.000001 -0.000000 -0.000001 0.000000 -0.000000 -2.911885 -5.638547 3.806892 45.516295 -2.457565 0.631221 -17.584892 -5.009799 4.438708 0.000001 -0.000000 0.000000 0.000001 -0.000000 0.000000 0.000002 0.000000 -0.000000 12.022137 2.758959 -0.814513 3.837213 1.366737 -0.591507 3.836432 1.347828 -0.641056 11.016116 -0.495549 0.101355 -13.662382 -11.313026 1.313779 0.000000 0.000000 0.000000 0.000000 0.000000 0.000000 0.000000 0.000000 0.000000 0.569755 5.955792 -13.722542 20.272268 -2.666854 -55.390806 0.000019 -62.977267 -0.000000 -4.036071 1.600943 11.028251 0.487663 7.616738 9.096081 7.134877 29.051189 -0.714208 0.000000 -0.000000 -0.000003 2.961579 5.741905 -63.612967 6.690262 6.878566 -88.406110 -0.000001 -0.000001 -0.000000 6.701387 7.023545 -76.811064 7.158613 6.875623 -92.316079 -0.000000 0.000001 -0.000001 6.703282 7.023954 -76.827286 7.156665 6.875709 -92.299877 0.000001 0.000001 -0.000009 10.684870 7.947945 -76.835817 7.156781 2.789436 -92.301004 -0.000001 0.000001 -0.000000 -0.000000 -0.000001 -0.000000 1.028088 -3.758562 14.165314 -10.604416 11.182449 59.602273 -0.000022 57.421578 0.000019 -1.920858 4.604861 4.097977 0.815954 -8.979154 -8.898910 8.861349 -28.459766 1.164068 -0.000001 0.000000 -0.000001 3.661296 -6.128822 63.520725 6.625464 -6.940763 87.330812 -0.000002 0.000003 0.000004 7.657683 -7.311755 76.521724 7.181194 -6.944339 91.926048 0.000002 -0.000001 -0.000002 7.657691 -7.311722 76.521717 7.181178 -6.944343 91.926054 0.000003 -0.000003 -0.000002 7.657682 -7.311712 76.521717 7.181199 -6.944370 91.926054 -0.000003 -0.000001 -0.000002 -0.000001 -0.000001 0.000002 0.000001 -0.000000 -0.000000 0.000001 -0.000000 -0.000000 0.000001 -0.000000 -0.000000 0.000001 -0.000000 -0.000000 0.000001 -0.000000 -0.000000 -0.000001 -0.000000 -0.000000 0.000001 -0.000000 -0.000000 0.000001 -0.000000 -0.000000 -0.000001 -0.000000 -0.000000 -0.000002 0.000001 -0.000000 -0.000002 0.000001 -0.000000 -0.000000 -0.000001 0.000000 
-2.375222 77.292175 20.328074 -0.210910 14.042513 -1.842833 0.000000 0.000000 0.000000 -41.507466 -2.069559 2.327000 52.643458 -2.400609 -8.513022 -7.989351 12.923065 -10.069727 -0.000000 0.000000 0.000000 -0.000000 0.000000 0.000001 0.000000 -0.000001 -0.000000 0.282454 -4.879933 3.907973 48.130844 -1.138677 0.784514 -1.248935 -6.337683 16.679667 0.000001 0.000000 -0.000001 0.000001 0.000000 -0.000001 -0.000002 0.000000 0.000000 10.806339 5.115214 -2.417437 3.569622 2.528555 -0.770299 3.569077 2.507391 -0.845302 11.872737 -0.898088 0.476486 -8.065181 -22.544841 4.667265 -0.000001 -0.000000 0.000000 -0.000001 -0.000000 0.000000 -0.000001 -0.000000 0.000000 0.795669 1.234245 -12.169595 27.051178 7.133417 -55.457700 0.000024 -71.671217 0.000035 5.163035 4.282578 25.292088 -1.916692 4.314379 10.778348 6.413923 30.007442 0.622064 0.000000 0.000000 -0.000001 0.205247 4.359271 -63.434514 3.786444 6.149005 -63.217499 -0.000003 0.000000 -0.000002 2.985077 5.777729 -64.841397 4.800354 6.560476 -72.358642 0.000001 -0.000000 -0.000002 2.986833 5.778532 -64.857557 4.798494 6.559896 -72.342454 -0.000000 0.000000 -0.000002 6.680411 7.504332 -64.774536 4.811856 2.477107 -72.511740 -0.000001 0.000001 -0.000002 -0.000000 0.000001 0.000000 0.917402 -0.789043 12.224780 -7.846675 6.917158 58.693537 -0.000010 57.611170 0.000004 3.224642 9.775491 3.429706 0.514455 -9.949936 -10.012040 8.447873 -27.306656 0.647828 -0.000001 0.000000 0.000001 2.339224 -5.571358 66.314512 3.612638 -6.098669 61.251019 -0.000003 -0.000002 0.000005 5.295121 -6.835788 67.478396 4.941288 -6.653439 73.172438 -0.000000 -0.000001 0.000001 5.295122 -6.835771 67.478389 4.941282 -6.653441 73.172431 -0.000001 0.000002 -0.000001 5.295123 -6.835765 67.478396 4.941302 -6.653446 73.172438 0.000000 -0.000000 -0.000001 -0.000003 -0.000001 -0.000000 -0.000000 0.000001 -0.000001 -0.000000 0.000001 -0.000001 -0.000000 0.000001 -0.000001 -0.000000 0.000001 -0.000001 -0.000000 0.000001 -0.000001 -0.000000 -0.000002 0.000002 -0.000000 0.000001 -0.000001 -0.000000 0.000001 -0.000001 -0.000000 -0.000002 0.000002 0.000000 0.000000 -0.000001 0.000000 0.000000 -0.000001 0.000000 0.000000 0.000000 
-3.714062 76.562714 29.384169 -1.226358 19.903736 -2.076340 -0.000000 -0.000000 -0.000000 -39.949421 2.557017 -3.171079 37.217165 -0.018330 -6.067635 -8.956291 19.737124 -7.826006 0.000000 -0.000003 -0.000002 0.000000 -0.000003 -0.000002 -0.000000 -0.000001 -0.000000 -3.198267 -3.392559 4.382949 61.075586 -0.902324 1.206193 4.370253 0.296842 23.780132 0.000001 -0.000000 -0.000000 0.000001 -0.000000 -0.000000 0.000001 0.000001 -0.000001 10.721062 6.719945 -2.814281 3.972117 3.263014 -0.536023 3.970816 3.254904 -0.604676 11.985646 -1.147756 0.846699 -2.813204 -30.459809 8.916569 0.000001 -0.000000 0.000000 0.000001 -0.000000 0.000000 0.000001 -0.000000 0.000000 1.383281 -3.800676 -11.397432 29.094615 16.117969 -57.515473 0.000130 -78.434751 0.000109 8.470404 5.556814 35.915744 -3.160886 2.141465 11.796396 5.577846 30.866325 2.103027 0.000000 0.000002 0.000003 -2.728827 2.301806 -59.480696 1.478766 4.268328 -38.202870 -0.000001 -0.000000 0.000002 -0.222825 3.105337 -51.008546 2.604594 5.395895 -51.507727 0.000000 -0.000000 0.000000 -0.221328 3.106546 -51.024594 2.603074 5.394693 -51.491597 0.000002 -0.000004 -0.000001 2.933532 5.664671 -50.755532 2.622152 1.321351 -51.816988 -0.000000 0.000003 0.000002 0.000001 0.000001 0.000001 1.086803 2.467182 10.296153 -6.412842 5.923134 56.316908 -0.000007 58.037511 -0.000002 6.348670 12.855036 1.812402 1.074784 -11.816859 -10.042647 8.052881 -26.419629 0.129417 -0.000000 -0.000001 0.000002 1.149478 -5.067351 66.603039 1.344520 -4.114648 36.177856 -0.000001 0.000001 0.000000 3.349532 -5.948728 57.786201 2.944431 -5.683306 54.747620 0.000004 0.000002 0.000000 3.349535 -5.948714 57.786214 2.944421 -5.683315 54.747620 0.000000 0.000002 0.000004 3.349530 -5.948699 57.786201 2.944428 -5.683325 54.747627 0.000003 -0.000002 -0.000002 0.000002 0.000000 -0.000004 -0.000000 -0.000001 0.000000 -0.000000 -0.000001 0.000000 -0.000000 -0.000001 0.000000 -0.000000 -0.000001 0.000000 -0.000000 -0.000001 0.000000 0.000001 0.000001 -0.000000 -0.000000 -0.000001 0.000000 -0.000000 -0.000001 0.000000 0.000001 0.000001 -0.000000 -0.000000 0.000000 -0.000000 -0.000000 0.000000 -0.000000 -0.000000 -0.000000 -0.000000 
-5.056175 74.802940 37.250118 -4.723102 22.253979 -1.914113 0.000000 -0.000002 -0.000000 -38.889328 5.369088 -6.314271 35.354746 0.440724 -4.873450 -8.278350 19.518966 4.509173 -0.000000 -0.000000 -0.000001 -0.000000 -0.000000 -0.000001 -0.000000 0.000002 -0.000001 -13.147306 -2.420954 2.161290 80.238624 0.103466 1.955309 -0.066845 3.894616 24.740882 0.000001 0.000001 -0.000000 0.000001 0.000001 -0.000000 0.000001 0.000000 0.000001 14.271550 6.894739 -2.277468 6.065940 3.367102 -0.023880 6.062964 3.374369 -0.073914 10.728446 -1.003524 1.518029 0.154482 -30.766218 11.837592 -0.000001 -0.000000 -0.000001 -0.000001 -0.000000 -0.000001 -0.000001 -0.000000 -0.000001 1.868447 -5.759389 -12.296610 24.178757 20.112032 -58.656121 0.000030 -70.956704 0.000018 5.372559 2.087742 38.105178 -2.801979 2.147061 11.367591 4.734177 30.661324 3.489734 -0.000000 -0.000001 -0.000000 -4.316566 0.186649 -53.387931 0.557378 2.718503 -23.169713 -0.000001 0.000003 -0.000005 -1.398157 0.960782 -41.094284 1.462203 4.247261 -37.979841 0.000001 -0.000001 -0.000000 -1.396895 0.962236 -41.110287 1.461009 4.245736 -37.963756 0.000000 0.000001 -0.000000 1.260516 4.026627 -40.715564 1.476711 0.179678 -38.370107 0.000000 -0.000001 0.000001 -0.000001 0.000000 0.000001 1.298122 4.382251 9.478932 -10.104021 10.467089 50.614823 0.000006 56.815682 -0.000012 6.939325 13.117637 1.429720 2.332682 -12.666443 -8.240558 7.823741 -26.113458 -0.127951 -0.000000 -0.000000 0.000001 0.440439 -4.578925 64.237103 0.510126 -2.618714 22.042842 0.000002 0.000003 0.000006 2.279898 -5.162148 50.445107 1.939048 -4.821343 43.798510 0.000003 0.000001 0.000003 2.279914 -5.162138 50.445124 1.939039 -4.821347 43.798513 0.000002 -0.000002 0.000004 2.279906 -5.162137 50.445120 1.939059 -4.821357 43.798506 0.000001 0.000001 0.000002 -0.000002 0.000002 -0.000000 -0.000001 -0.000002 0.000000 -0.000001 -0.000002 0.000000 -0.000001 -0.000002 0.000000 -0.000001 -0.000002 0.000000 -0.000001 -0.000002 0.000001 -0.000001 0.000001 0.000000 -0.000001 -0.000002 0.000000 -0.000001 -0.000002 0.000001 -0.000001 0.000001 0.000000 0.000001 -0.000002 0.000001 0.000001 -0.000002 0.000001 0.000000 -0.000002 -0.000000 
